<svg xmlns="http://www.w3.org/2000/svg" xmlns:xlink="http://www.w3.org/1999/xlink" width="108" height="108" viewBox="0 0 108 108">
  <defs>
    <clipPath id="clip-path">
      <circle id="Ellipse_24" data-name="Ellipse 24" cx="54" cy="54" r="54" transform="translate(-0.056 -0.084)" fill="#fff"/>
    </clipPath>
  </defs>
  <g id="Group_6" data-name="Group 6" transform="translate(0.056 0.084)" clip-path="url(#clip-path)">
    <g id="Gift_Bag" data-name="Gift Bag" transform="translate(14.701 11.895)">
      <g id="BG" transform="translate(0.166 0.944)">
        <rect id="Rectangle_575" data-name="Rectangle 575" width="78" height="78" transform="translate(0.077 0.077)" fill="#fff" opacity="0"/>
      </g>
      <g id="Shadow" transform="translate(14.297 9.947)">
        <g id="Group_2400" data-name="Group 2400">
          <path id="Path_1059" data-name="Path 1059" d="M88.627,120.579H82.84l3.692-5.979h1.035Z" transform="translate(-78.362 -98.61)" fill="#e2ccf9" stroke="#e2ccf9" strokeLinecap="round" strokeLinejoin="round" strokeWidth="0.8"/>
          <path id="Path_1060" data-name="Path 1060" d="M115.634,65.969l-3.692-5.979h-1.425l1.216-4-10.255-3.114a8.97,8.97,0,0,0-16.105-5.336L70.535,50.163l1.742,9.825,1.06,5.979H67.55l-4.48,43.711h57.046l-4.48-43.711Z" transform="translate(-63.07 -44)" fill="#e2ccf9" stroke="#e2ccf9" strokeLinecap="round" strokeLinejoin="round" strokeWidth="0.8"/>
        </g>
      </g>
      <g id="Stroke" transform="translate(11.124 6.774)">
        <g id="Group_2401" data-name="Group 2401">
          <path id="Path_1061" data-name="Path 1061" d="M74.627,106.579H68.84l3.692-5.979h1.035Z" transform="translate(-64.36 -84.608)" fill="none" stroke="#000" strokeLinecap="round" strokeLinejoin="round" strokeWidth="0.8"/>
          <path id="Path_1062" data-name="Path 1062" d="M257.49,106.579h-6.93l1.814-5.979H253.8Z" transform="translate(-204.924 -84.608)" fill="none" stroke="#000" strokeLinecap="round" strokeLinejoin="round" strokeWidth="0.8"/>
          <path id="Path_1063" data-name="Path 1063" d="M106.106,170.711H49.06L53.54,127h48.087Z" transform="translate(-49.06 -105.029)" fill="none" stroke="#000" strokeLinecap="round" strokeLinejoin="round" strokeWidth="0.8"/>
          <path id="Path_1064" data-name="Path 1064" d="M190.989,65.524l-1.216,4-1.814,5.979H169.63l.487-1.6.752-2.478.578-1.9,2.761-9.1,6.525,1.979Z" transform="translate(-142.323 -53.536)" fill="none" stroke="#000" strokeLinecap="round" strokeLinejoin="round" strokeWidth="0.8"/>
          <path id="Path_1065" data-name="Path 1065" d="M102.349,60.975l-.487,1.6H84.822l-1.06-5.979L82.02,46.77l14.839-2.627,2.432-.433,2.281,12.885.3,1.694Z" transform="translate(-74.555 -40.603)" fill="none" stroke="#000" strokeLinecap="round" strokeLinejoin="round" strokeWidth="0.8"/>
          <path id="Path_1066" data-name="Path 1066" d="M163.645,38.864l-6.525-1.979-2.761,9.1h-2.106L149.97,33.1l-2.43.43a8.968,8.968,0,0,1,16.105,5.334Z" transform="translate(-125.236 -29.99)" fill="none" stroke="#000" strokeLinecap="round" strokeLinejoin="round" strokeWidth="0.8"/>
          <circle id="Ellipse_43" data-name="Ellipse 43" cx="1.853" cy="1.853" r="1.853" transform="translate(17.523 28.072)" fill="none" stroke="#000" strokeLinecap="round" strokeLinejoin="round" strokeWidth="0.8"/>
          <circle id="Ellipse_44" data-name="Ellipse 44" cx="1.853" cy="1.853" r="1.853" transform="translate(34.923 28.072)" fill="none" stroke="#000" strokeLinecap="round" strokeLinejoin="round" strokeWidth="0.8"/>
          <path id="Path_1067" data-name="Path 1067" d="M151.9,170.3v4.545a8.744,8.744,0,0,1-17.489,0V170.3" transform="translate(-115.08 -138.522)" fill="none" stroke="#000" strokeLinecap="round" strokeLinejoin="round" strokeWidth="0.8"/>
        </g>
      </g>
    </g>
  </g>
</svg>
